<?xml version="1.0" standalone="no"?>
<!DOCTYPE svg PUBLIC "-//W3C//DTD SVG 20010904//EN"
 "http://www.w3.org/TR/2001/REC-SVG-20010904/DTD/svg10.dtd">
<svg version="1.0" xmlns="http://www.w3.org/2000/svg"
 width="673.000000pt" height="105.000000pt" viewBox="0 0 673.000000 105.000000"
 preserveAspectRatio="xMidYMid meet">

<g transform="translate(0.000000,105.000000) scale(0.100000,-0.100000)"
fill="#000000" stroke="none">
<path d="M3048 904 c-54 -29 -76 -116 -39 -153 11 -11 53 -42 94 -69 41 -28
77 -59 81 -68 4 -9 -1 -27 -9 -40 -21 -32 -82 -32 -137 -2 -33 19 -40 20 -48
8 -17 -27 -11 -41 25 -56 79 -33 178 -5 209 60 9 18 16 40 16 48 -1 32 -34 67
-112 118 -64 43 -84 61 -86 81 -6 51 59 68 124 33 36 -20 38 -19 48 13 6 19 2
25 -19 33 -38 15 -116 12 -147 -6z"/>
<path d="M3420 909 c-99 -40 -149 -180 -101 -284 50 -112 207 -152 299 -78 81
65 106 140 78 235 -17 60 -52 99 -108 122 -42 18 -130 20 -168 5z m137 -51
c70 -43 104 -171 65 -248 -31 -62 -110 -79 -173 -37 -92 61 -109 232 -29 294
25 20 99 15 137 -9z"/>
<path d="M4116 881 c-3 -19 -4 -36 -3 -38 2 -1 22 7 44 18 23 11 54 19 70 17
l28 -3 3 -158 3 -158 -38 -17 -38 -17 58 -3 c32 -2 81 -2 110 0 l52 3 -38 17
-38 17 3 158 3 158 34 3 c23 2 43 -3 62 -17 35 -26 36 -26 43 3 3 13 8 31 11
38 5 12 -23 14 -179 14 l-184 0 -6 -35z"/>
<path d="M5366 908 c-18 -58 -32 -93 -86 -217 -42 -95 -68 -142 -81 -146 -39
-13 -17 -25 46 -25 63 0 86 12 45 23 -24 6 -26 34 -4 65 13 19 24 22 85 22 56
0 73 -4 89 -20 26 -26 25 -54 -2 -73 -22 -15 -18 -16 60 -16 45 -1 82 2 82 5
0 3 -10 14 -22 24 -14 11 -53 89 -98 194 -57 136 -78 176 -92 176 -10 0 -20
-6 -22 -12z m68 -226 c7 -21 4 -22 -58 -22 -36 0 -66 4 -66 9 0 4 14 41 32 81
l32 73 27 -60 c15 -33 30 -69 33 -81z"/>
<path d="M6549 897 c-42 -28 -61 -64 -54 -101 7 -40 27 -60 118 -118 81 -53
95 -78 61 -112 -22 -23 -90 -20 -130 5 -38 23 -54 19 -54 -16 0 -17 8 -26 31
-34 66 -23 142 -10 187 31 17 17 22 32 22 73 0 57 -10 70 -90 121 -94 59 -114
98 -67 129 24 16 74 8 103 -16 19 -15 44 -4 44 20 0 46 -112 58 -171 18z"/>
<path d="M1903 889 l27 -21 0 -148 c0 -122 -3 -151 -16 -164 -8 -9 -22 -16
-30 -16 -8 0 -14 -4 -14 -10 0 -6 49 -10 128 -10 102 0 135 4 167 19 95 43
140 161 100 258 -39 92 -87 113 -260 112 l-130 0 28 -20z m243 -37 c35 -25 57
-79 62 -148 7 -103 -39 -156 -135 -156 -71 0 -73 4 -73 174 0 144 1 149 22
157 28 10 92 -4 124 -27z"/>
<path d="M2335 900 c3 -5 13 -10 20 -10 22 0 26 -32 23 -190 -3 -139 -4 -145
-25 -155 -42 -18 -24 -25 62 -25 86 0 104 7 63 25 -22 10 -23 15 -26 165 l-3
155 28 22 28 23 -88 0 c-56 0 -86 -4 -82 -10z"/>
<path d="M2563 894 l27 -15 0 -210 0 -210 -25 -25 c-14 -14 -25 -27 -25 -29 0
-13 40 -3 64 16 51 40 56 63 56 263 l0 184 28 21 27 20 -90 0 c-85 0 -89 -1
-62 -15z"/>
<path d="M2760 900 c0 -5 7 -10 15 -10 26 0 35 -46 35 -181 0 -131 -8 -169
-35 -169 -8 0 -15 -4 -15 -10 0 -6 33 -10 80 -10 47 0 80 4 80 10 0 6 -7 10
-15 10 -27 0 -35 39 -35 175 0 136 8 175 35 175 8 0 15 5 15 10 0 6 -33 10
-80 10 -47 0 -80 -4 -80 -10z"/>
<path d="M3790 890 c24 -18 25 -24 28 -141 5 -151 -1 -186 -34 -201 -45 -21
-25 -28 76 -28 60 0 100 4 100 10 0 6 -9 10 -20 10 -11 0 -29 9 -40 20 -17 17
-20 31 -18 78 3 54 5 57 30 60 15 2 40 -4 57 -13 l30 -15 22 41 21 42 -24 -8
c-12 -5 -48 -9 -78 -9 l-55 -1 -3 49 c-4 69 3 93 33 100 34 9 102 -10 114 -32
12 -21 19 -14 31 27 l9 31 -152 0 c-152 0 -152 0 -127 -20z"/>
<path d="M4546 885 c25 -19 44 -58 99 -200 58 -150 71 -176 88 -173 14 2 24
19 37 58 10 30 29 80 43 110 l25 55 14 -35 c8 -19 28 -70 44 -113 36 -98 56
-101 87 -12 60 176 115 300 135 310 38 17 24 25 -45 24 -65 0 -67 -1 -45 -16
12 -8 22 -20 22 -26 0 -14 -92 -259 -95 -255 -2 2 -24 58 -50 126 -32 83 -45
131 -41 147 6 25 5 25 -54 25 -33 0 -60 -4 -60 -10 0 -5 4 -10 10 -10 16 0 50
-77 49 -112 0 -18 -15 -64 -33 -103 l-32 -69 -47 120 c-52 133 -55 151 -29
170 14 11 5 13 -68 14 l-85 0 31 -25z"/>
<path d="M5663 889 l27 -21 0 -153 0 -153 -27 -21 -28 -20 93 -1 c95 0 113 8
62 27 -29 11 -30 13 -30 82 0 55 3 71 14 71 36 0 68 -24 120 -92 32 -40 67
-78 79 -85 20 -11 87 -18 87 -9 0 2 -19 23 -42 48 -24 24 -64 68 -89 97 -45
51 -46 53 -24 61 32 12 55 49 55 88 0 83 -39 102 -202 102 l-123 -1 28 -20z
m210 -30 c18 -22 23 -84 8 -107 -4 -7 -26 -18 -47 -22 -75 -18 -74 -18 -74 63
0 45 5 78 13 86 17 18 78 6 100 -20z"/>
<path d="M6124 885 c26 -24 26 -25 26 -168 0 -127 -2 -146 -18 -160 -10 -10
-24 -17 -30 -17 -7 0 -12 -5 -12 -10 0 -7 53 -10 152 -8 l153 3 20 37 c23 44
14 60 -18 31 -36 -33 -63 -43 -117 -43 -45 0 -52 3 -60 26 -14 35 -13 107 1
121 15 15 68 6 91 -15 16 -14 19 -11 37 29 22 49 21 55 -6 41 -34 -18 -103
-25 -118 -12 -23 19 -20 105 5 130 11 11 26 20 33 20 31 0 87 -22 96 -38 12
-21 26 -9 35 31 l6 27 -151 0 -152 0 27 -25z"/>
<path d="M1882 133 c-14 -26 -4 -42 35 -58 19 -8 32 -19 28 -25 -9 -14 -42
-13 -48 3 -3 9 -7 9 -17 0 -9 -9 -7 -15 13 -27 36 -24 80 -6 75 31 -2 21 -10
29 -35 37 -18 5 -33 13 -33 18 0 15 29 21 44 9 17 -14 29 -2 15 16 -16 19 -67
16 -77 -4z"/>
<path d="M2131 124 c-26 -33 -26 -55 -3 -85 38 -46 122 -17 122 43 0 64 -80
92 -119 42z m79 -8 c28 -35 -11 -93 -47 -70 -24 15 -28 48 -8 68 20 20 39 20
55 2z"/>
<path d="M2400 85 l0 -65 35 0 c19 0 35 5 35 10 0 6 -9 10 -20 10 -18 0 -20 7
-20 55 0 42 -3 55 -15 55 -12 0 -15 -14 -15 -65z"/>
<path d="M2610 98 c0 -29 4 -58 8 -64 12 -18 41 -24 67 -14 23 9 25 15 25 70
0 33 -4 60 -10 60 -5 0 -10 -18 -10 -39 0 -52 -8 -71 -31 -71 -16 0 -19 8 -19
55 0 42 -3 55 -15 55 -11 0 -15 -12 -15 -52z"/>
<path d="M2850 141 c0 -5 9 -11 20 -14 17 -4 20 -14 20 -56 0 -28 5 -51 10
-51 6 0 10 23 10 51 0 42 3 52 20 56 37 10 20 23 -30 23 -27 0 -50 -4 -50 -9z"/>
<path d="M3090 85 c0 -51 3 -65 15 -65 12 0 15 14 15 65 0 51 -3 65 -15 65
-12 0 -15 -14 -15 -65z"/>
<path d="M3286 134 c-38 -37 -27 -96 20 -114 68 -26 125 59 74 110 -24 24 -72
26 -94 4z m74 -18 c16 -20 9 -56 -12 -70 -40 -24 -80 44 -42 71 23 17 39 16
54 -1z"/>
<path d="M3550 85 c0 -51 3 -65 15 -65 11 0 15 12 15 43 l1 42 25 -42 c16 -27
33 -43 45 -43 17 0 19 8 19 65 0 51 -3 65 -15 65 -11 0 -15 -12 -15 -47 l0
-48 -30 48 c-43 68 -60 63 -60 -18z"/>
<path d="M4007 132 c-21 -23 -22 -71 -3 -97 19 -26 83 -26 102 0 20 27 17 79
-4 98 -25 22 -75 21 -95 -1z m78 -27 c19 -29 2 -65 -30 -65 -37 0 -55 42 -30
70 22 24 43 23 60 -5z"/>
<path d="M4270 86 c0 -52 3 -66 15 -66 10 0 15 10 15 28 l1 27 20 -28 c27 -36
57 -39 34 -3 -14 20 -14 28 -3 45 19 30 0 55 -46 59 l-36 3 0 -65z m66 33 c3
-6 0 -15 -7 -20 -22 -14 -29 -11 -29 11 0 21 24 27 36 9z"/>
<path d="M4520 85 c0 -37 4 -65 10 -65 6 0 10 28 10 65 0 37 -4 65 -10 65 -6
0 -10 -28 -10 -65z"/>
<path d="M4700 85 l0 -65 40 0 c22 0 40 5 40 10 0 6 -11 10 -25 10 -16 0 -25
6 -25 15 0 8 9 15 20 15 11 0 20 5 20 10 0 6 -9 10 -20 10 -13 0 -20 7 -20 20
0 15 7 20 25 20 14 0 25 5 25 10 0 6 -18 10 -40 10 l-40 0 0 -65z"/>
<path d="M4930 85 c0 -51 3 -65 15 -65 11 0 15 11 15 43 l0 42 28 -42 c15 -24
35 -43 45 -43 14 0 17 10 17 65 0 51 -3 65 -15 65 -11 0 -15 -12 -15 -47 l0
-47 -30 47 c-43 68 -60 63 -60 -18z"/>
<path d="M5190 140 c0 -5 7 -10 15 -10 12 0 15 -13 15 -55 0 -42 3 -55 15 -55
11 0 15 12 15 50 0 36 4 52 15 56 30 12 14 24 -30 24 -25 0 -45 -4 -45 -10z"/>
<path d="M5430 85 l0 -65 35 0 c19 0 35 5 35 10 0 6 -11 10 -25 10 -16 0 -25
6 -25 15 0 9 9 15 25 15 31 0 33 17 3 22 -13 2 -23 10 -23 18 0 8 10 16 23 18
35 5 26 22 -13 22 l-35 0 0 -65z"/>
<path d="M5650 85 l0 -65 45 0 c55 0 81 30 70 80 -8 36 -30 50 -79 50 l-36 0
0 -65z m86 9 c7 -28 -11 -54 -37 -54 -15 0 -19 7 -19 38 0 21 3 41 6 44 12 13
45 -6 50 -28z"/>
</g>
</svg>
